<?xml version="1.0" encoding="UTF-8"?>
<svg id="Layer_1" data-name="Layer 1" xmlns="http://www.w3.org/2000/svg" viewBox="0 0 220 150">
  <defs>
    <style>
      .cls-1 {
        fill: #fff;
      }

      .cls-2 {
        fill: #e5342d;
      }
    </style>
  </defs>
  <g>
    <path class="cls-1" d="M88.54,28.76c1.82,0,3.63,0,5.45,0,.59,0,.71.15.61.73-.22,1.23-.43,2.45-.66,3.68-.06.32-.19.63-.26.95-.27,1.41-.51,2.82-.78,4.22-.26,1.37-.56,2.72-.83,4.09-.24,1.21-.46,2.43-.69,3.64-.14.77-.26,1.54-.42,2.31-.23,1.12-.51,2.22-.74,3.34-.23,1.14-.4,2.29-.6,3.44-.05.27-.13.54-.18.81-.1.51-.2,1.03-.29,1.55-.04.21-.05.44-.12.64-.21.55-.23,1.12-.25,1.7-.03,1.04.44,1.76,1.32,2.26.78.45,1.62.68,2.48.88.48.11.95.28,1.44.34.72.1,1.46.13,2.18.18.74.05,1.48.15,2.21.14.89-.01,1.79-.08,2.68-.19,1.13-.14,2.27-.3,3.38-.55.8-.18,1.56-.51,2.33-.81.45-.17.88-.4,1.29-.63.2-.11.4-.27.54-.46.28-.36.56-.73.77-1.14.62-1.18.82-2.48,1.03-3.79.21-1.31.54-2.6.8-3.91.23-1.15.43-2.31.66-3.46.26-1.28.54-2.56.81-3.84.33-1.59.64-3.19.96-4.79.23-1.16.43-2.33.66-3.49.25-1.25.53-2.5.78-3.75.24-1.19.46-2.39.67-3.59.05-.31.21-.46.5-.48.24-.01.47-.02.71-.02,3.43,0,6.85,0,10.28,0,.18,0,.35,0,.53.02.25.03.37.18.32.43-.22,1.03-.44,2.05-.66,3.08-.04.19-.08.38-.12.58-.2,1.1-.38,2.21-.6,3.31-.25,1.27-.54,2.54-.79,3.81-.23,1.17-.44,2.35-.67,3.52-.27,1.33-.57,2.66-.83,3.99-.26,1.3-.48,2.62-.73,3.92-.26,1.37-.53,2.73-.81,4.09-.27,1.31-.56,2.62-.83,3.93-.21.99-.38,1.98-.6,2.96-.1.43-.25.85-.41,1.26-.21.55-.4,1.11-.68,1.61-.41.74-.84,1.48-1.35,2.16-.46.62-1.01,1.17-1.55,1.72-.5.5-1.01,1.01-1.57,1.44-.56.44-1.2.79-1.8,1.17-.37.24-.74.47-1.12.71-.03.02-.07.05-.1.07-.42.19-.83.39-1.26.55-.74.28-1.47.57-2.23.81-1.08.34-2.16.64-3.27.87-1.58.33-3.17.61-4.78.75-1.16.1-2.33.09-3.49.12-.32,0-.64.02-.96.02-1.38-.03-2.76-.05-4.14-.12-.81-.04-1.61-.13-2.42-.23-.76-.09-1.53-.18-2.29-.34-.9-.2-1.79-.48-2.68-.72-.27-.07-.55-.1-.81-.2-.78-.32-1.55-.65-2.31-1.02-.41-.2-.77-.5-1.15-.77-.46-.32-.95-.62-1.36-1-.87-.8-1.68-1.65-2.31-2.68-.41-.69-.71-1.4-.98-2.15-.42-1.14-.53-2.32-.47-3.5.05-1.03.06-2.08.43-3.08.07-.2.08-.42.13-.64.1-.49.2-.99.29-1.48.11-.63.2-1.26.33-1.89.25-1.24.53-2.48.77-3.72.22-1.14.41-2.29.62-3.44.07-.36.17-.72.24-1.09.28-1.49.55-2.98.84-4.46.2-1.03.45-2.05.67-3.07.05-.23.07-.47.11-.7.09-.47.19-.95.28-1.42.07-.37.13-.75.2-1.12.11-.53.22-1.07.33-1.6,0-.01,0-.02,0-.03.22-1.2.43-2.41.66-3.61.07-.38.18-.76.26-1.14.08-.36.13-.73.2-1.09.08-.44.23-.57.66-.58.67-.01,1.34,0,2.01,0,1.17,0,2.33,0,3.5,0,0,0,0,0,0,0Z"/>
    <path class="cls-2" d="M136.57,28.95c1.89,0,3.78,0,5.66,0,.58,0,.8.2.89.77.02.13.07.25.12.38.13.36.26.73.4,1.09.23.55.47,1.1.7,1.65.02.05.06.09.07.14.23.69.45,1.39.68,2.08.04.11.1.2.14.3.09.22.18.43.26.65.1.24.2.49.3.73.02.04.05.07.06.11.22.65.44,1.3.66,1.95.05.13.11.26.17.39.03.06.08.1.1.16.22.65.44,1.3.67,1.95.06.16.13.32.2.48.09.22.17.44.26.66.1.24.2.49.3.73.03.08.07.15.09.23.21.62.41,1.25.62,1.87.04.1.1.2.16.3.06.12.15.23.19.35.22.65.42,1.31.64,1.95.06.16.2.43.26.42.24-.03.54-.11.67-.28.39-.47.71-1.01,1.07-1.51.26-.37.54-.72.81-1.08.19-.25.37-.51.56-.77.65-.87,1.3-1.74,1.94-2.62.36-.49.68-1,1.04-1.49.59-.8,1.2-1.59,1.8-2.39.38-.51.74-1.03,1.12-1.55.36-.5.72-1,1.08-1.5.44-.6.87-1.19,1.31-1.79.58-.78,1.17-1.56,1.74-2.35.58-.8,1.14-1.6,1.72-2.4.22-.3.46-.58.68-.88.39-.53.78-1.06,1.17-1.58.44-.6.89-1.2,1.33-1.8.18-.25.36-.5.53-.75.2-.29.4-.57.6-.85.61-.83,1.23-1.65,1.84-2.47.48-.64.96-1.28,1.42-1.94.55-.77,1.08-1.55,1.63-2.31.23-.32.46-.64.73-.91.13-.13.38-.21.58-.21,1.94-.02,3.88,0,5.82,0,2.68,0,5.36,0,8.05,0,.11,0,.22.06.34.09-.05.1-.09.22-.15.31-.35.48-.71.96-1.06,1.44-.29.4-.57.8-.86,1.2-.42.59-.83,1.19-1.26,1.78-.34.48-.71.94-1.05,1.41-.24.32-.46.65-.69.97-.56.79-1.11,1.58-1.68,2.36-.39.54-.81,1.06-1.2,1.6-.37.51-.71,1.03-1.07,1.54-.41.58-.83,1.14-1.24,1.72-.38.53-.74,1.06-1.12,1.58-.43.6-.88,1.18-1.32,1.78-.24.33-.45.69-.68,1.02-.23.33-.48.64-.71.97-.58.81-1.15,1.62-1.72,2.43-.15.21-.32.4-.47.61-.6.81-1.19,1.61-1.78,2.43-.4.56-.78,1.13-1.17,1.69-.4.57-.82,1.13-1.23,1.69-.39.54-.78,1.08-1.17,1.62-.36.5-.72,1.01-1.07,1.51-.46.65-.93,1.3-1.39,1.95-.4.55-.81,1.09-1.21,1.63-.16.21-.3.44-.46.66-.4.58-.8,1.17-1.2,1.75-.15.22-.33.42-.49.63-.57.77-1.14,1.53-1.7,2.3-.41.57-.79,1.17-1.2,1.74-.39.55-.8,1.09-1.2,1.63-.19.26-.36.53-.55.78-.28.38-.58.75-.86,1.13-.18.24-.33.49-.5.74-.57.81-1.15,1.62-1.73,2.43-.62.88-1.24,1.77-1.87,2.64-.57.78-1.15,1.54-1.73,2.32-.5.68-1,1.36-1.48,2.05-.55.79-1.09,1.59-1.64,2.38-.43.61-.86,1.22-1.31,1.83-.05.07-.18.16-.24.14-.07-.02-.13-.14-.16-.23-.27-.77-.54-1.55-.8-2.32-.06-.18-.11-.37-.17-.56-.02-.06,0-.13-.03-.18-.25-.69-.5-1.39-.75-2.08,0,0-.01-.02-.02-.03-.22-.66-.43-1.32-.65-1.98,0-.02,0-.04,0-.06-.24-.67-.48-1.34-.72-2.01-.07-.18-.13-.37-.2-.55-.09-.24-.18-.48-.27-.72-.01-.03-.03-.05-.04-.08-.23-.72-.45-1.44-.68-2.16-.07-.22-.17-.44-.25-.66-.07-.19-.14-.39-.21-.58-.11-.29-.21-.58-.32-.87-.06-.15-.1-.31-.16-.47-.12-.34-.24-.68-.35-1.01-.06-.17-.09-.34-.15-.5-.1-.3-.21-.6-.3-.9-.09-.26-.15-.54-.24-.8-.26-.71-.54-1.42-.78-2.13-.24-.71-.44-1.43-.67-2.14-.02-.08-.06-.15-.09-.23-.12-.3-.23-.61-.35-.91-.09-.25-.18-.49-.27-.74-.03-.07-.07-.13-.09-.2-.2-.62-.39-1.25-.59-1.87-.07-.21-.17-.42-.25-.63-.02-.05-.06-.09-.07-.14-.22-.72-.43-1.43-.65-2.15-.07-.21-.16-.42-.24-.63-.07-.19-.15-.38-.22-.58-.11-.29-.22-.58-.32-.86-.07-.18-.12-.37-.18-.56-.1-.31-.21-.62-.32-.93-.05-.14-.09-.27-.14-.41-.13-.38-.28-.75-.4-1.12-.11-.33-.19-.67-.3-1-.15-.49-.32-.97-.48-1.46-.28-.84-.56-1.69-.86-2.53-.06-.18-.2-.34-.26-.52-.22-.65-.41-1.3-.63-1.95-.09-.27-.2-.53-.29-.8-.06-.17-.12-.35-.18-.52-.1-.27-.2-.53-.29-.8-.06-.17-.12-.35-.18-.53-.08-.26-.14-.54-.24-.79-.15-.39-.1-.49.32-.49,1.91,0,3.82,0,5.73,0h0Z"/>
    <path class="cls-1" d="M55.34,28.77c7.27,0,14.55,0,21.82,0,.26,0,.52,0,.77.03.34.05.47.23.4.57-.21,1-.45,1.99-.65,2.98-.1.5-.13,1.02-.24,1.53-.23,1.11-.5,2.21-.73,3.31-.11.52-.15,1.06-.26,1.59-.07.35-.2.69-.33,1.03-.08.21-.23.33-.47.33-.73-.01-1.46-.03-2.2-.03-4.44,0-8.87,0-13.31-.01-.29,0-.5.11-.61.38-.08.2-.17.4-.21.61-.19.94-.36,1.88-.55,2.82-.16.81-.32,1.61-.48,2.42-.14.66-.29,1.33-.41,1.99-.09.47-.12.94-.21,1.41-.26,1.31-.56,2.61-.82,3.92-.22,1.13-.4,2.27-.62,3.4-.25,1.25-.55,2.49-.8,3.74-.32,1.59-.63,3.19-.93,4.79-.23,1.2-.45,2.41-.69,3.61-.24,1.21-.52,2.42-.76,3.63-.1.49-.14,1-.23,1.5-.12.67-.24.77-.92.77-3.36,0-6.73,0-10.09,0-.32,0-.64,0-.96,0-.5,0-.62-.15-.52-.62.31-1.48.62-2.96.92-4.45.34-1.7.67-3.4,1-5.1.25-1.27.47-2.55.72-3.83.32-1.62.65-3.23.97-4.85.28-1.4.55-2.81.83-4.21.07-.37.19-.74.26-1.12.11-.61.19-1.22.3-1.83.15-.8.31-1.6.48-2.39.24-1.1.49-2.19.73-3.28.04-.17.05-.35.08-.52.13-.64.28-1.29.41-1.93.04-.19.05-.39.03-.58-.02-.21-.17-.31-.39-.31-3.29,0-6.58.02-9.87.02-1.83,0-3.65,0-5.48,0-.15,0-.31,0-.46.02-.43.04-.63-.12-.62-.55,0-.21.07-.43.11-.64.15-.76.3-1.52.46-2.27.26-1.27.55-2.54.8-3.81.22-1.12.41-2.25.61-3.37.1-.59.26-.71.91-.71,3.92,0,7.84,0,11.76,0,3.49,0,6.97,0,10.46,0Z"/>
    <path class="cls-1" d="M108.08,14.7c7.32,0,14.65,0,21.97,0,.2,0,.39,0,.58.04.2.04.31.16.27.38-.13.64-.25,1.29-.39,1.93-.24,1.09-.5,2.18-.73,3.28-.1.5-.15,1.02-.23,1.53-.08.51-.32.71-.84.71-8.04,0-16.07,0-24.11,0-6.75,0-13.49,0-20.24,0-.41,0-.59-.22-.49-.65.07-.31.18-.61.24-.93.12-.63.19-1.26.32-1.89.22-1.07.48-2.13.71-3.19.05-.23.07-.47.09-.7.03-.39.14-.51.54-.51,1.94,0,3.88,0,5.82,0,5.5,0,11,0,16.5,0Z"/>
    <path class="cls-1" d="M120.71,96.52c0-2.5,0-4.99,0-7.49,0-.79.13-.9.92-.9,2.16,0,4.31-.02,6.47.02.61.01,1.21.2,1.82.29.53.08,1.01.31,1.44.59.43.29.83.64,1.19,1.02.77.83,1.13,1.85,1.1,2.96-.02.63-.03,1.28-.4,1.9-.39.67-.84,1.23-1.46,1.67-.12.08-.26.12-.39.19-.25.13-.28.3-.07.48.63.52,1.06,1.19,1.4,1.93.36.78.78,1.53,1.15,2.31.26.54.46,1.1.7,1.64.18.4.4.79.57,1.19.18.43.1.56-.38.57-.68.02-1.36,0-2.04,0-.54,0-1.07.03-1.61.02-.14,0-.34-.08-.42-.19-.21-.29-.37-.61-.54-.93-.11-.21-.21-.42-.3-.64-.23-.54-.45-1.08-.68-1.62-.18-.41-.35-.84-.57-1.23-.22-.4-.49-.78-.76-1.15-.59-.83-1.42-1.11-2.4-1-.37.04-.48.17-.48.54,0,1.81.01,3.61.01,5.42,0,.72-.13.81-.84.79-.86-.02-1.71,0-2.57,0-.15,0-.31,0-.46-.03-.24-.05-.38-.2-.39-.45,0-.27-.01-.54-.01-.8,0-2.37,0-4.75,0-7.12h0ZM124.97,93.14c0,.39,0,.78,0,1.17,0,.42.11.57.54.58.59.01,1.17,0,1.76.01.59,0,1.09-.12,1.52-.59.49-.55.58-1.14.34-1.77-.21-.55-.65-.97-1.25-1.03-.81-.08-1.62-.07-2.44-.08-.35,0-.48.16-.48.51,0,.4,0,.8,0,1.21Z"/>
    <path class="cls-1" d="M55.05,93.48c0-1.42,0-2.94,0-4.46,0-.12.03-.25.03-.37,0-.3.18-.45.45-.49.16-.02.33-.02.49-.02.89,0,1.77,0,2.66-.01.44,0,.61.12.63.57.03.63.02,1.26.03,1.89,0,2.14.04,4.27-.02,6.41-.02.81.11,1.57.41,2.28.19.46.56.85.9,1.23.41.45.96.63,1.54.79.52.14,1.02.25,1.55.19.74-.08,1.45-.29,2.08-.71.25-.17.52-.34.72-.57.51-.6.85-1.28.87-2.08.03-1.62.07-3.24.08-4.85.01-1.41,0-2.83,0-4.24,0-.08,0-.17,0-.25.02-.52.13-.63.66-.64.87,0,1.73,0,2.6,0,.09,0,.19,0,.28,0,.69-.02.78.05.78.76,0,2.83,0,5.65,0,8.48,0,1.26-.18,2.51-.66,3.69-.43,1.07-1.17,1.9-2.12,2.55-1.4.96-2.96,1.4-4.65,1.39-1.06,0-2.12-.04-3.18-.09-.26-.01-.52-.12-.77-.2-.13-.04-.25-.1-.38-.13-1.44-.34-2.63-1.11-3.53-2.27-.63-.81-1.02-1.73-1.21-2.77-.36-1.99-.12-3.99-.23-6.08Z"/>
    <path class="cls-1" d="M162.7,101.63c-1.01,0-2.02.01-3.03,0-.42,0-.69.14-.83.54-.23.67-.48,1.33-.7,2-.19.57-.5.78-1.1.77-1.05-.02-2.1-.03-3.15.02-.45.02-.59-.3-.44-.66.31-.76.61-1.52.93-2.27.25-.59.52-1.16.76-1.75.23-.57.42-1.15.64-1.72.23-.57.48-1.13.73-1.7.05-.11.1-.23.15-.34.28-.68.56-1.37.83-2.05.21-.51.41-1.03.62-1.55.29-.72.58-1.45.87-2.17.22-.56.45-1.13.64-1.7.21-.66.53-.91,1.21-.9,1.2,0,2.39,0,3.59-.01.24,0,.43.06.54.28.3.63.61,1.25.9,1.88.23.51.41,1.05.63,1.56.23.51.5,1.01.72,1.52.24.53.44,1.08.66,1.61.02.04.02.08.04.12.25.51.52,1.02.76,1.54.24.54.45,1.1.67,1.64,0,0,0,.02,0,.03.25.52.5,1.05.75,1.57.02.04.05.07.07.1.21.51.41,1.03.62,1.54.07.18.2.34.27.51.23.53.44,1.08.67,1.61.08.2.23.37.29.58.06.18.13.42.05.57-.05.11-.33.13-.51.14-1.05,0-2.1,0-3.16,0-.67,0-.89-.2-1.11-.84-.21-.62-.5-1.21-.76-1.81,0-.02-.03-.03-.03-.05-.09-.62-.53-.62-1.01-.6-.93.02-1.86,0-2.78,0ZM162.71,98.6s0,.01,0,.02c.58,0,1.15,0,1.73,0,.33,0,.49-.16.38-.46-.18-.51-.39-1.02-.6-1.52-.23-.55-.49-1.08-.72-1.63-.22-.54-.41-1.09-.62-1.64-.01-.03-.02-.07-.04-.08-.14-.08-.29-.23-.43-.22-.11,0-.23.2-.29.34-.08.18-.08.39-.15.57-.25.65-.53,1.29-.79,1.94-.05.12-.07.26-.11.38-.05.16-.09.32-.15.47-.18.47-.37.93-.54,1.41-.08.2,0,.35.22.38.15.03.31.04.46.05.55,0,1.09,0,1.64,0Z"/>
    <path class="cls-1" d="M47.58,104.92c-.6,0-1.2,0-1.8,0-.31,0-.48-.14-.6-.43-.25-.62-.54-1.22-.8-1.83-.08-.18-.14-.37-.19-.55-.08-.3-.26-.46-.57-.48-.1,0-.21-.01-.31-.01-1.96,0-3.92,0-5.88,0-.14,0-.31-.02-.43.04-.16.08-.35.21-.41.37-.35.83-.66,1.68-.98,2.52-.11.3-.32.4-.65.39-1.06-.02-2.12-.02-3.19,0-.55.01-.72-.14-.57-.67.13-.45.32-.89.5-1.32.24-.58.49-1.15.73-1.73.21-.51.42-1.03.62-1.55.3-.74.6-1.48.89-2.23.22-.55.4-1.12.63-1.67.24-.58.51-1.14.75-1.72.21-.48.4-.97.59-1.46.3-.74.59-1.48.88-2.23.22-.57.46-1.14.66-1.72.11-.3.29-.47.6-.5.18-.02.37-.02.56-.02,1.06,0,2.13,0,3.19,0,.66,0,.79.11,1.03.7.22.54.5,1.05.74,1.58.24.54.46,1.09.68,1.64.02.05.03.1.05.15.25.5.5,1.01.74,1.51.05.11.09.23.14.34.1.23.22.46.32.7.23.54.45,1.07.67,1.61.02.06.03.12.06.18.25.51.52,1.02.76,1.54.22.48.41.99.63,1.47.27.6.54,1.19.82,1.79.03.06.06.11.08.17.29.66.57,1.31.85,1.97.15.35.29.7.42,1.06.08.23-.02.36-.3.36-.64.01-1.28,0-1.92,0,0,0,0,0,0,0ZM40.29,98.62s0-.01,0-.02c.51,0,1.01,0,1.52,0,.18,0,.36.02.52-.03.1-.03.24-.21.22-.28-.12-.41-.28-.82-.45-1.21-.24-.58-.5-1.15-.75-1.72-.24-.57-.46-1.14-.69-1.71-.09-.22-.18-.44-.3-.64-.13-.22-.31-.21-.4.03-.07.19-.09.4-.16.6-.31.86-.63,1.71-.95,2.57-.04.12-.11.22-.15.34-.21.55-.44,1.09-.63,1.64-.1.3.05.45.36.45.62,0,1.24,0,1.86,0Z"/>
    <path class="cls-1" d="M85.07,105.06c-.75-.05-1.51-.05-2.24-.18-.63-.11-1.23-.38-1.84-.58-.23-.08-.47-.16-.68-.27-.35-.19-.68-.41-1.01-.64-.07-.05-.11-.2-.11-.3,0-.88,0-1.75,0-2.63,0-.52.18-.64.66-.4.45.22.85.54,1.3.76.6.29,1.21.55,1.84.77.75.27,1.54.26,2.33.23.62-.02,1.2-.13,1.65-.64.37-.42.33-1.12-.08-1.5-.54-.48-1.14-.81-1.84-1.01-.56-.16-1.09-.41-1.64-.62-.31-.12-.62-.21-.92-.35-.36-.17-.72-.36-1.06-.56-.62-.36-1.16-.82-1.6-1.38-.39-.5-.71-1.03-.81-1.66-.09-.62-.15-1.24-.1-1.88.12-1.36.88-2.29,1.88-3.06.41-.32.93-.49,1.43-.7.94-.39,1.93-.45,2.88-.45,1.11,0,2.25,0,3.32.42.63.25,1.28.43,1.93.63.26.08.45.23.47.51.03.44.04.88.05,1.33,0,.35,0,.7,0,1.05,0,.44-.14.58-.58.53-.08,0-.17-.02-.24-.05-.58-.25-1.16-.51-1.74-.76-.16-.07-.33-.11-.5-.14-.73-.12-1.46-.32-2.19-.32-.68,0-1.39.1-1.94.58-.52.44-.47,1.08.07,1.5.71.56,1.54.85,2.38,1.12.21.07.41.2.61.28.57.23,1.16.43,1.71.69.82.39,1.59.88,2.14,1.62.33.45.66.94.84,1.46.2.59.27,1.24.18,1.88-.01.08-.03.16-.03.25.04.93-.39,1.68-.94,2.38-.5.62-1.11,1.15-1.82,1.45-.8.33-1.63.65-2.53.62-.4-.01-.8,0-1.21,0,0,.02,0,.03,0,.05Z"/>
    <path class="cls-1" d="M105.8,88.13c2.5,0,4.99,0,7.49,0,.38,0,.55.13.56.5.02.76.02,1.53,0,2.29,0,.38-.18.51-.55.51-1.59,0-3.18,0-4.77-.01-.53,0-.64.13-.64.66,0,3,0,6,0,9.01,0,1.08,0,2.17,0,3.25,0,.48-.11.59-.59.59-.89.01-1.77,0-2.66,0-.11,0-.23,0-.34,0-.58.04-.67-.03-.71-.6-.01-.25,0-.49,0-.74,0-3.66,0-7.33,0-10.99,0-.25.02-.5.02-.74,0-.32-.15-.45-.46-.44-1.61,0-3.22,0-4.83.02-.41,0-.6-.15-.61-.56-.01-.72-.01-1.44,0-2.17,0-.42.19-.57.6-.57,2.5,0,4.99,0,7.49,0Z"/>
    <path class="cls-1" d="M146.71,96.56c0,2.5,0,4.99,0,7.49,0,.11,0,.23-.01.34-.03.41-.23.57-.65.56-.91-.02-1.81-.03-2.72-.02-.76,0-.89-.1-.89-.85,0-3.92,0-7.84,0-11.75,0-1.12,0-2.25,0-3.37,0-.69.16-.82.85-.82.92,0,1.84,0,2.75,0,.47,0,.66.14.66.6.01,1.28,0,2.56,0,3.84,0,1.33,0,2.66,0,3.99h0Z"/>
  </g>
  <g>
    <path class="cls-1" d="M31.91,135.05v-13.99h2.82v13.99h-2.82Z"/>
    <path class="cls-1" d="M36.71,130.5l2.75-.27c.17.92.5,1.6,1.01,2.03.51.43,1.19.65,2.05.65.91,0,1.59-.19,2.06-.58.46-.39.69-.84.69-1.35,0-.33-.1-.61-.29-.84s-.53-.43-1.02-.61c-.33-.11-1.09-.32-2.26-.61-1.51-.38-2.58-.84-3.19-1.38-.86-.77-1.29-1.71-1.29-2.81,0-.71.2-1.38.61-2,.4-.62.99-1.09,1.75-1.42.76-.32,1.68-.49,2.75-.49,1.76,0,3.08.39,3.96,1.15.89.77,1.35,1.8,1.4,3.08l-2.82.12c-.12-.72-.38-1.24-.78-1.55-.4-.31-.99-.47-1.79-.47s-1.46.17-1.93.51c-.3.22-.45.51-.45.87,0,.33.14.61.42.85.36.3,1.22.61,2.59.93,1.37.32,2.39.66,3.05,1.01.66.35,1.17.82,1.55,1.42.37.6.56,1.34.56,2.23,0,.8-.22,1.55-.67,2.25s-1.07,1.22-1.89,1.56c-.81.34-1.83.51-3.04.51-1.77,0-3.13-.41-4.08-1.23-.95-.82-1.51-2.01-1.7-3.57Z"/>
    <path class="cls-1" d="M49.88,128.14c0-1.43.21-2.62.64-3.59.32-.71.75-1.35,1.3-1.92.55-.57,1.15-.99,1.81-1.26.87-.37,1.88-.55,3.01-.55,2.06,0,3.71.64,4.95,1.92,1.24,1.28,1.86,3.06,1.86,5.33s-.61,4.02-1.84,5.3c-1.23,1.28-2.87,1.91-4.92,1.91s-3.73-.63-4.96-1.9c-1.23-1.27-1.84-3.02-1.84-5.24ZM52.79,128.05c0,1.58.37,2.78,1.1,3.6.73.82,1.66,1.23,2.79,1.23s2.05-.41,2.77-1.22c.72-.81,1.08-2.03,1.08-3.65s-.35-2.8-1.05-3.59c-.7-.79-1.64-1.18-2.8-1.18s-2.1.4-2.81,1.2c-.71.8-1.07,2-1.07,3.61Z"/>
    <path class="cls-1" d="M79.51,132.56v2.49h-9.4c.1-.94.41-1.83.91-2.68.51-.84,1.51-1.96,3.01-3.35,1.21-1.13,1.95-1.89,2.22-2.29.37-.55.55-1.1.55-1.64,0-.6-.16-1.06-.48-1.38-.32-.32-.77-.48-1.33-.48s-1,.17-1.33.51c-.33.34-.52.9-.57,1.68l-2.67-.27c.16-1.48.66-2.54,1.5-3.18.84-.64,1.89-.96,3.15-.96,1.38,0,2.46.37,3.25,1.12.79.74,1.18,1.67,1.18,2.78,0,.63-.11,1.23-.34,1.8-.23.57-.58,1.16-1.07,1.79-.32.41-.91,1.01-1.75,1.78-.85.78-1.38,1.29-1.61,1.55-.22.25-.41.5-.55.74h5.32Z"/>
    <path class="cls-1" d="M90.48,124.49l-2.59.29c-.06-.53-.23-.93-.5-1.18-.27-.25-.61-.38-1.04-.38-.57,0-1.04.25-1.44.76-.39.51-.64,1.57-.74,3.18.67-.79,1.5-1.18,2.49-1.18,1.12,0,2.08.43,2.88,1.28.8.85,1.2,1.95,1.2,3.3,0,1.43-.42,2.58-1.26,3.44-.84.86-1.92,1.3-3.23,1.3-1.41,0-2.57-.55-3.48-1.65-.91-1.1-1.37-2.9-1.37-5.39s.47-4.41,1.42-5.54c.95-1.13,2.18-1.7,3.69-1.7,1.06,0,1.94.3,2.64.89.7.6,1.14,1.46,1.33,2.59ZM84.4,130.34c0,.87.2,1.54.6,2.02.4.47.86.71,1.37.71s.91-.19,1.24-.58c.33-.39.5-1.02.5-1.91s-.18-1.57-.53-2c-.35-.42-.8-.63-1.33-.63s-.95.2-1.31.61c-.36.4-.53,1-.53,1.79Z"/>
    <path class="cls-1" d="M96.87,121.01c1.35,0,2.41.48,3.18,1.45.91,1.15,1.36,3.04,1.36,5.7s-.46,4.55-1.37,5.7c-.76.95-1.81,1.43-3.17,1.43s-2.46-.52-3.29-1.57c-.83-1.05-1.25-2.91-1.25-5.59s.46-4.53,1.37-5.69c.76-.95,1.81-1.43,3.17-1.43ZM96.87,123.23c-.33,0-.62.1-.87.31-.25.21-.45.58-.59,1.11-.18.69-.28,1.86-.28,3.5s.08,2.77.25,3.38c.17.61.38,1.02.62,1.23.25.2.54.3.86.3s.61-.1.87-.31.45-.58.59-1.11c.19-.69.28-1.85.28-3.49s-.08-2.77-.25-3.38c-.16-.61-.37-1.02-.62-1.23-.25-.21-.54-.31-.86-.31Z"/>
    <path class="cls-1" d="M107.78,121.01c1.35,0,2.41.48,3.18,1.45.91,1.15,1.36,3.04,1.36,5.7s-.46,4.55-1.37,5.7c-.76.95-1.81,1.43-3.17,1.43s-2.46-.52-3.29-1.57c-.83-1.05-1.25-2.91-1.25-5.59s.46-4.53,1.37-5.69c.76-.95,1.81-1.43,3.17-1.43ZM107.78,123.23c-.33,0-.62.1-.87.31s-.45.58-.59,1.11c-.18.69-.28,1.86-.28,3.5s.08,2.77.25,3.38c.17.61.38,1.02.62,1.23.25.2.54.3.86.3s.61-.1.87-.31.45-.58.59-1.11c.19-.69.28-1.85.28-3.49s-.08-2.77-.25-3.38c-.16-.61-.37-1.02-.62-1.23s-.54-.31-.86-.31Z"/>
    <path class="cls-1" d="M118.68,121.01c1.35,0,2.41.48,3.18,1.45.91,1.15,1.36,3.04,1.36,5.7s-.46,4.55-1.37,5.7c-.76.95-1.81,1.43-3.17,1.43s-2.46-.52-3.29-1.57c-.83-1.05-1.25-2.91-1.25-5.59s.46-4.53,1.37-5.69c.76-.95,1.81-1.43,3.17-1.43ZM118.68,123.23c-.33,0-.62.1-.87.31-.25.21-.45.58-.59,1.11-.18.69-.28,1.86-.28,3.5s.08,2.77.25,3.38c.17.61.38,1.02.62,1.23.25.2.54.3.86.3s.61-.1.87-.31.45-.58.59-1.11c.19-.69.28-1.85.28-3.49s-.08-2.77-.25-3.38c-.16-.61-.37-1.02-.62-1.23-.25-.21-.54-.31-.86-.31Z"/>
    <path class="cls-1" d="M126.14,127.6v-2.68h2.68v2.68h-2.68ZM126.14,135.05v-2.68h2.68v2.68h-2.68Z"/>
    <path class="cls-1" d="M140.36,132.56v2.49h-9.4c.1-.94.41-1.83.91-2.68.51-.84,1.51-1.96,3.01-3.35,1.21-1.13,1.95-1.89,2.22-2.29.37-.55.55-1.1.55-1.64,0-.6-.16-1.06-.48-1.38-.32-.32-.77-.48-1.33-.48s-1,.17-1.33.51c-.33.34-.52.9-.57,1.68l-2.67-.27c.16-1.48.66-2.54,1.5-3.18.84-.64,1.89-.96,3.15-.96,1.38,0,2.46.37,3.25,1.12.79.74,1.18,1.67,1.18,2.78,0,.63-.11,1.23-.34,1.8-.23.57-.58,1.16-1.07,1.79-.32.41-.91,1.01-1.75,1.78-.85.78-1.38,1.29-1.61,1.55-.22.25-.41.5-.55.74h5.32Z"/>
    <path class="cls-1" d="M146.75,121.01c1.35,0,2.41.48,3.18,1.45.91,1.15,1.36,3.04,1.36,5.7s-.46,4.55-1.37,5.7c-.76.95-1.81,1.43-3.17,1.43s-2.46-.52-3.29-1.57c-.83-1.05-1.25-2.91-1.25-5.59s.46-4.53,1.37-5.69c.76-.95,1.81-1.43,3.17-1.43ZM146.75,123.23c-.33,0-.62.1-.87.31s-.45.58-.59,1.11c-.18.69-.28,1.86-.28,3.5s.08,2.77.25,3.38c.17.61.38,1.02.62,1.23.25.2.54.3.86.3s.61-.1.87-.31.45-.58.59-1.11c.19-.69.28-1.85.28-3.49s-.08-2.77-.25-3.38c-.16-.61-.37-1.02-.62-1.23-.25-.21-.54-.31-.86-.31Z"/>
    <path class="cls-1" d="M159.98,135.05h-2.68v-10.1c-.98.92-2.13,1.59-3.46,2.03v-2.43c.7-.23,1.46-.66,2.28-1.3s1.38-1.38,1.69-2.24h2.17v14.04Z"/>
    <path class="cls-1" d="M168.34,121.01c1.35,0,2.41.48,3.18,1.45.91,1.15,1.36,3.04,1.36,5.7s-.46,4.55-1.37,5.7c-.76.95-1.81,1.43-3.17,1.43s-2.46-.52-3.29-1.57c-.83-1.05-1.25-2.91-1.25-5.59s.46-4.53,1.37-5.69c.76-.95,1.81-1.43,3.17-1.43ZM168.34,123.23c-.33,0-.62.1-.87.31s-.45.58-.59,1.11c-.18.69-.28,1.86-.28,3.5s.08,2.77.25,3.38c.17.61.38,1.02.62,1.23.25.2.54.3.86.3s.61-.1.87-.31.45-.58.59-1.11c.19-.69.28-1.85.28-3.49s-.08-2.77-.25-3.38c-.16-.61-.37-1.02-.62-1.23s-.54-.31-.86-.31Z"/>
  </g>
</svg>