<?xml version="1.0" encoding="UTF-8"?>
<svg id="Layer_1" data-name="Layer 1" xmlns="http://www.w3.org/2000/svg" viewBox="0 0 220 150">
  <defs>
    <style>
      .cls-1 {
        fill: #fff;
      }

      .cls-2 {
        fill: #e5342d;
      }
    </style>
  </defs>
  <g>
    <path class="cls-1" d="M87.95,27.48h5.6c.61,0,.73.15.62.75-.23,1.26-.45,2.52-.68,3.78-.06.33-.2.65-.26.98-.28,1.45-.53,2.9-.81,4.34-.27,1.4-.58,2.8-.85,4.2-.25,1.25-.48,2.49-.71,3.74-.15.79-.27,1.59-.44,2.37-.24,1.15-.53,2.29-.76,3.44-.23,1.17-.41,2.36-.62,3.53-.05.28-.13.56-.19.84-.11.53-.2,1.06-.3,1.59-.04.22-.05.45-.13.65-.22.57-.24,1.15-.25,1.75-.03,1.07.45,1.81,1.36,2.33.8.46,1.66.7,2.55.9.5.11.98.29,1.48.35.74.1,1.5.13,2.25.18.76.06,1.52.16,2.27.15.92-.01,1.84-.08,2.75-.2,1.16-.15,2.33-.31,3.47-.56.82-.19,1.6-.53,2.39-.83.46-.18.9-.41,1.33-.65.21-.12.41-.28.55-.47.29-.37.58-.75.8-1.17.64-1.22.85-2.55,1.06-3.89.21-1.35.56-2.67.83-4.01.24-1.18.44-2.37.68-3.56.26-1.32.56-2.63.83-3.95.34-1.64.66-3.28.98-4.92.23-1.2.44-2.4.68-3.59.26-1.29.55-2.57.8-3.86.24-1.23.47-2.45.69-3.69.06-.31.21-.47.52-.49.24-.01.49-.02.73-.02,3.52,0,7.04,0,10.56,0,.18,0,.36,0,.54.02.26.03.38.18.33.44-.22,1.06-.45,2.11-.67,3.17-.04.2-.08.39-.12.59-.21,1.13-.39,2.27-.62,3.4-.26,1.31-.55,2.61-.81,3.92-.24,1.2-.45,2.41-.69,3.62-.27,1.37-.58,2.73-.85,4.11-.26,1.34-.49,2.69-.75,4.03-.27,1.4-.55,2.8-.84,4.2-.28,1.35-.58,2.69-.86,4.04-.21,1.01-.39,2.03-.62,3.05-.1.44-.26.87-.42,1.29-.21.56-.41,1.14-.69,1.66-.42.77-.87,1.52-1.39,2.22-.47.63-1.04,1.2-1.6,1.77-.51.52-1.04,1.03-1.61,1.48-.58.45-1.23.81-1.85,1.21-.38.24-.76.49-1.15.73-.04.02-.07.05-.11.07-.43.19-.86.4-1.3.57-.76.29-1.52.59-2.29.84-1.11.35-2.22.66-3.37.9-1.63.34-3.26.63-4.92.77-1.19.1-2.39.09-3.59.13-.33.01-.66.03-.99.02-1.42-.03-2.84-.05-4.25-.12-.83-.04-1.66-.14-2.48-.24-.79-.09-1.58-.18-2.35-.35-.93-.2-1.84-.49-2.75-.74-.28-.07-.57-.1-.83-.21-.8-.33-1.6-.66-2.37-1.05-.42-.21-.8-.51-1.18-.79-.47-.33-.98-.64-1.4-1.02-.9-.82-1.73-1.7-2.37-2.76-.42-.71-.73-1.44-1.01-2.21-.43-1.17-.54-2.38-.48-3.6.05-1.06.06-2.14.44-3.17.08-.21.09-.44.13-.65.1-.51.21-1.01.3-1.52.12-.65.21-1.3.34-1.94.26-1.28.54-2.55.79-3.83.23-1.17.42-2.36.64-3.53.07-.37.18-.74.25-1.12.29-1.53.56-3.06.87-4.59.21-1.06.46-2.11.69-3.16.05-.24.07-.48.12-.72.09-.49.2-.97.29-1.46.07-.38.13-.77.21-1.15.11-.55.23-1.1.34-1.64,0-.01,0-.02,0-.03.22-1.24.45-2.48.68-3.71.07-.39.18-.78.26-1.18.08-.37.14-.75.21-1.12.09-.45.23-.59.68-.6.69-.01,1.38,0,2.07,0,1.2,0,2.4,0,3.59,0h0Z"/>
    <path class="cls-2" d="M137.31,27.67c1.94,0,3.88,0,5.82,0,.59,0,.82.2.91.79.02.13.07.26.12.39.14.37.26.75.41,1.12.23.57.48,1.13.72,1.7.02.05.06.09.08.14.23.71.46,1.42.7,2.14.04.11.1.21.15.31.09.22.18.45.27.67.1.25.21.5.31.75.02.04.05.07.06.11.23.67.45,1.34.68,2,.05.14.11.27.18.4.03.06.08.1.1.16.23.67.46,1.33.69,2,.06.17.14.33.21.5.09.22.18.45.27.68.1.25.2.5.31.75.03.08.07.15.1.23.21.64.42,1.28.64,1.92.04.11.11.2.16.31.07.12.16.23.2.36.22.67.43,1.34.66,2.01.06.17.2.45.27.44.24-.03.55-.11.69-.28.4-.49.73-1.03,1.1-1.55.27-.38.56-.74.84-1.11.19-.26.38-.53.58-.79.67-.9,1.34-1.79,2-2.7.37-.5.7-1.03,1.07-1.53.61-.82,1.23-1.63,1.85-2.46.39-.52.76-1.06,1.15-1.59.37-.51.74-1.03,1.11-1.54.45-.61.9-1.23,1.35-1.84.6-.81,1.2-1.6,1.79-2.41.6-.82,1.17-1.65,1.76-2.47.22-.31.47-.6.7-.91.4-.54.8-1.09,1.2-1.63.46-.62.92-1.23,1.37-1.85.19-.26.37-.52.55-.78.21-.29.41-.59.62-.88.63-.85,1.26-1.69,1.89-2.54.49-.66.98-1.32,1.46-1.99.56-.79,1.11-1.59,1.67-2.38.23-.33.47-.66.75-.94.14-.14.39-.21.59-.22,1.99-.02,3.99,0,5.98,0,2.76,0,5.51,0,8.27,0,.12,0,.23.06.35.1-.05.11-.09.22-.16.32-.36.5-.73.98-1.09,1.48-.3.41-.59.82-.88,1.24-.43.61-.85,1.23-1.29,1.83-.35.49-.72.96-1.08,1.45-.24.33-.47.67-.71,1-.58.81-1.14,1.62-1.73,2.43-.4.55-.83,1.09-1.23,1.65-.38.52-.73,1.06-1.1,1.58-.42.59-.85,1.17-1.28,1.77-.39.54-.76,1.09-1.15,1.63-.45.61-.91,1.22-1.35,1.83-.25.34-.46.7-.7,1.05-.24.34-.49.66-.73,1-.59.83-1.18,1.67-1.77,2.5-.15.21-.32.42-.48.63-.61.83-1.23,1.66-1.83,2.5-.41.57-.8,1.16-1.21,1.74-.41.58-.84,1.16-1.26,1.74-.4.55-.8,1.11-1.2,1.67-.37.52-.74,1.03-1.1,1.55-.48.67-.95,1.34-1.43,2-.41.56-.83,1.12-1.24,1.68-.16.22-.31.45-.47.67-.41.6-.82,1.2-1.24,1.8-.16.22-.34.43-.5.65-.58.79-1.17,1.57-1.75,2.37-.42.59-.81,1.2-1.23,1.79-.4.57-.83,1.12-1.24,1.68-.19.26-.37.54-.56.81-.29.39-.6.77-.88,1.16-.18.25-.34.51-.51.76-.59.84-1.18,1.67-1.77,2.5-.64.9-1.27,1.82-1.92,2.71-.58.8-1.19,1.59-1.77,2.39-.51.7-1.02,1.4-1.52,2.1-.57.81-1.12,1.63-1.69,2.44-.44.63-.89,1.26-1.34,1.88-.05.07-.18.16-.24.14-.07-.02-.13-.15-.17-.24-.28-.79-.55-1.59-.83-2.39-.06-.19-.12-.38-.17-.58-.02-.06,0-.13-.03-.19-.26-.71-.51-1.43-.77-2.14,0,0-.01-.02-.02-.03-.22-.68-.44-1.36-.67-2.03,0-.02,0-.04,0-.06-.25-.69-.49-1.38-.74-2.07-.07-.19-.13-.38-.2-.56-.09-.25-.18-.49-.28-.74-.01-.03-.03-.06-.04-.09-.23-.74-.46-1.48-.7-2.22-.07-.23-.17-.45-.25-.67-.07-.2-.14-.4-.21-.6-.11-.3-.22-.59-.33-.89-.06-.16-.11-.32-.16-.48-.12-.35-.24-.69-.36-1.04-.06-.17-.1-.35-.15-.52-.1-.31-.21-.62-.31-.93-.09-.27-.15-.55-.25-.82-.26-.73-.55-1.46-.8-2.19-.25-.73-.46-1.47-.68-2.2-.02-.08-.07-.15-.09-.23-.12-.31-.24-.63-.35-.94-.09-.25-.18-.51-.28-.76-.03-.07-.07-.13-.09-.2-.2-.64-.4-1.28-.61-1.92-.07-.22-.17-.43-.26-.64-.02-.05-.06-.09-.07-.14-.22-.73-.44-1.47-.66-2.21-.07-.22-.17-.43-.25-.65-.08-.2-.15-.39-.22-.59-.11-.3-.22-.59-.33-.89-.07-.19-.12-.38-.19-.57-.11-.32-.22-.64-.33-.95-.05-.14-.09-.28-.14-.42-.14-.39-.28-.77-.41-1.16-.11-.34-.2-.69-.31-1.03-.16-.5-.33-1-.49-1.5-.29-.87-.58-1.74-.88-2.6-.07-.19-.21-.35-.27-.53-.22-.67-.43-1.34-.64-2.01-.09-.28-.2-.55-.3-.82-.06-.18-.12-.36-.19-.53-.1-.28-.2-.55-.3-.83-.06-.18-.13-.36-.18-.54-.08-.27-.14-.55-.24-.82-.15-.4-.1-.5.33-.5,1.96,0,3.92,0,5.89,0h0Z"/>
    <path class="cls-1" d="M53.81,27.49c7.48,0,14.95,0,22.43,0,.26,0,.53,0,.79.03.35.05.48.24.41.58-.22,1.02-.46,2.04-.67,3.07-.11.52-.14,1.05-.25,1.57-.24,1.14-.51,2.27-.75,3.4-.11.54-.15,1.09-.26,1.63-.07.36-.21.71-.33,1.06-.08.22-.24.34-.49.34-.75-.01-1.5-.03-2.26-.03-4.56,0-9.12,0-13.68-.01-.3,0-.52.11-.63.39-.09.2-.18.41-.22.63-.2.96-.37,1.93-.56,2.89-.16.83-.33,1.66-.5,2.49-.14.68-.29,1.36-.42,2.05-.09.48-.12.97-.22,1.45-.27,1.35-.57,2.69-.84,4.03-.23,1.16-.41,2.33-.64,3.49-.26,1.29-.57,2.56-.83,3.85-.33,1.64-.64,3.28-.96,4.92-.24,1.24-.46,2.48-.7,3.71s-.53,2.49-.78,3.73c-.1.51-.15,1.03-.24,1.54-.12.69-.24.79-.94.79-3.46,0-6.91,0-10.37,0-.33,0-.66,0-.99,0-.51,0-.63-.15-.53-.64.31-1.52.64-3.05.94-4.57.35-1.74.69-3.49,1.03-5.24.25-1.31.49-2.62.74-3.93.33-1.66.67-3.32,1-4.98.29-1.44.57-2.89.86-4.33.08-.38.19-.76.26-1.15.11-.62.19-1.25.31-1.88.15-.82.32-1.64.49-2.46.24-1.13.5-2.25.75-3.37.04-.18.05-.36.08-.53.14-.66.29-1.32.42-1.98.04-.19.05-.4.03-.59-.02-.22-.17-.32-.4-.32-3.38,0-6.77.02-10.15.02-1.88,0-3.75,0-5.63,0-.16,0-.32,0-.48.02-.44.04-.64-.12-.64-.56,0-.22.07-.44.11-.66.15-.78.31-1.56.47-2.34.27-1.31.56-2.61.82-3.92.23-1.15.42-2.31.63-3.47.11-.6.27-.73.94-.73,4.03,0,8.06,0,12.09,0,3.58,0,7.17,0,10.75,0Z"/>
    <path class="cls-1" d="M108.03,13.02c7.53,0,15.06,0,22.59,0,.2,0,.4,0,.6.04.2.04.32.17.27.39-.13.66-.26,1.32-.4,1.98-.25,1.12-.51,2.24-.75,3.37-.11.52-.15,1.05-.23,1.57-.08.53-.33.73-.86.73-8.26,0-16.52,0-24.78,0-6.93,0-13.87,0-20.8,0-.43,0-.6-.22-.5-.67.07-.32.18-.63.24-.95.12-.65.19-1.3.33-1.94.23-1.1.49-2.18.73-3.28.05-.24.07-.48.09-.72.03-.4.14-.53.55-.53,1.99,0,3.99,0,5.98,0,5.65,0,11.3,0,16.96,0Z"/>
    <path class="cls-1" d="M121.01,97.12v-7.7c0-.81.13-.92.95-.92,2.22,0,4.43-.02,6.65.02.62.01,1.25.2,1.87.29.55.08,1.04.32,1.48.61.44.3.86.66,1.22,1.05.79.85,1.16,1.91,1.13,3.05-.02.65-.03,1.32-.41,1.96-.4.69-.87,1.27-1.5,1.72-.12.08-.27.13-.4.19-.26.14-.29.31-.07.5.65.54,1.09,1.22,1.44,1.98.37.8.81,1.57,1.19,2.37.26.55.47,1.13.72,1.69.18.41.41.81.59,1.23.19.44.1.58-.39.59-.7.02-1.4,0-2.1,0-.55,0-1.1.03-1.65.02-.15,0-.35-.09-.43-.2-.21-.3-.38-.63-.56-.95-.11-.21-.22-.43-.31-.66-.24-.55-.46-1.11-.7-1.66-.18-.43-.36-.86-.58-1.26-.23-.41-.51-.8-.78-1.19-.61-.85-1.46-1.14-2.47-1.03-.38.04-.49.17-.49.56,0,1.86.01,3.71.02,5.57,0,.74-.13.83-.86.82-.88-.02-1.76,0-2.64,0-.16,0-.32,0-.47-.03-.25-.05-.39-.2-.4-.46,0-.28-.01-.55-.01-.83,0-2.44,0-4.88,0-7.32h0ZM125.38,93.65c0,.4,0,.8,0,1.21,0,.43.12.58.55.59.6.02,1.21,0,1.81.01.6,0,1.12-.12,1.56-.61.51-.56.6-1.17.35-1.82-.22-.57-.67-.99-1.28-1.06-.83-.09-1.67-.08-2.5-.08-.36,0-.49.16-.49.52,0,.41,0,.83,0,1.24Z"/>
    <path class="cls-1" d="M53.52,94c0-1.46,0-3.02,0-4.58,0-.13.03-.25.03-.38,0-.31.18-.46.47-.51.17-.02.34-.02.51-.02.91,0,1.82,0,2.74-.01.45,0,.63.13.64.59.03.65.03,1.29.03,1.94,0,2.19.04,4.39-.02,6.58-.02.83.12,1.61.42,2.35.19.47.58.88.93,1.26.42.46.99.65,1.58.81.53.14,1.05.26,1.59.2.76-.09,1.49-.29,2.14-.73.26-.18.54-.35.73-.58.52-.61.87-1.31.89-2.14.03-1.66.07-3.33.08-4.99.01-1.45,0-2.91,0-4.36,0-.08,0-.17,0-.25.02-.53.13-.65.68-.66.89-.01,1.78,0,2.67,0,.1,0,.19,0,.29,0,.71-.02.8.06.8.78,0,2.91,0,5.81,0,8.72,0,1.3-.18,2.58-.67,3.79-.45,1.1-1.21,1.95-2.18,2.62-1.44.99-3.05,1.44-4.78,1.42-1.09,0-2.18-.04-3.27-.09-.27-.01-.53-.13-.79-.2-.13-.04-.26-.1-.39-.14-1.48-.35-2.7-1.14-3.63-2.33-.64-.83-1.05-1.78-1.24-2.84-.37-2.05-.12-4.1-.24-6.25Z"/>
    <path class="cls-1" d="M164.17,102.37c-1.04,0-2.08.01-3.12,0-.43,0-.71.15-.85.56-.24.69-.49,1.37-.72,2.06-.19.59-.52.8-1.13.79-1.08-.02-2.16-.03-3.24.02-.46.02-.61-.31-.46-.68.32-.78.63-1.56.96-2.34.25-.6.53-1.19.78-1.8.24-.58.43-1.19.66-1.77.23-.59.5-1.16.75-1.74.05-.12.1-.23.15-.35.29-.7.57-1.4.86-2.11.21-.53.42-1.06.63-1.59.3-.74.6-1.49.89-2.23.23-.58.46-1.16.66-1.75.22-.68.55-.93,1.24-.93,1.23,0,2.46,0,3.69-.01.25,0,.44.07.55.29.31.64.63,1.28.92,1.94.23.53.42,1.07.65,1.6.23.53.51,1.04.74,1.56.24.55.45,1.11.68,1.66.02.04.02.08.04.12.26.53.54,1.05.78,1.58.25.56.46,1.13.69,1.69,0,0,0,.02,0,.03.26.54.52,1.08.78,1.62.02.04.05.07.07.11.21.53.42,1.06.64,1.58.08.18.2.34.28.53.23.55.45,1.11.69,1.66.09.2.23.38.3.59.06.19.13.44.05.59-.06.11-.34.14-.52.14-1.08,0-2.16-.01-3.24,0-.68,0-.92-.21-1.14-.86-.21-.64-.51-1.24-.78-1.86,0-.02-.03-.03-.03-.05-.09-.64-.54-.63-1.04-.62-.95.02-1.91,0-2.86,0ZM164.17,99.26v.02c.59,0,1.19,0,1.78,0,.34,0,.5-.16.39-.47-.19-.53-.4-1.05-.62-1.56-.24-.56-.51-1.11-.74-1.68-.23-.56-.42-1.12-.64-1.68-.01-.03-.02-.07-.04-.08-.15-.09-.3-.24-.44-.23-.11,0-.24.21-.3.35-.08.18-.08.4-.15.58-.26.67-.54,1.33-.81,1.99-.05.13-.07.26-.11.4-.05.16-.09.32-.15.48-.18.48-.38.96-.56,1.44-.08.21,0,.36.23.4.16.03.32.05.47.05.56,0,1.12,0,1.69,0Z"/>
    <path class="cls-1" d="M45.85,105.76c-.61,0-1.23,0-1.84,0-.32,0-.49-.14-.62-.44-.26-.63-.55-1.25-.83-1.88-.08-.18-.15-.38-.2-.57-.08-.31-.27-.47-.58-.49-.11,0-.21-.01-.32-.01-2.01,0-4.03,0-6.04,0-.15,0-.32-.02-.44.04-.16.09-.36.22-.42.38-.35.86-.67,1.73-1.01,2.59-.12.31-.33.41-.67.41-1.09-.02-2.18-.02-3.27,0-.56.01-.74-.14-.58-.68.14-.46.33-.91.51-1.36.24-.6.51-1.18.75-1.78.22-.53.43-1.06.64-1.59.31-.76.62-1.53.92-2.29.22-.57.42-1.15.65-1.72.24-.59.52-1.17.77-1.76.21-.5.41-1,.61-1.5.3-.76.61-1.53.91-2.29.23-.59.47-1.17.68-1.77.11-.31.3-.48.62-.51.19-.02.38-.02.57-.02,1.09,0,2.18,0,3.28,0,.68,0,.81.11,1.06.72.22.55.52,1.08.76,1.63.25.56.47,1.12.7,1.69.02.05.03.1.05.15.25.52.51,1.04.76,1.56.06.11.09.24.14.35.11.24.22.47.33.71.23.55.46,1.1.69,1.66.02.06.03.12.06.18.26.53.53,1.05.78,1.58.23.5.42,1.01.65,1.51.27.62.56,1.23.84,1.84.03.06.06.11.08.17.29.68.59,1.35.88,2.03.15.36.3.72.43,1.09.08.24-.02.37-.31.37-.66.01-1.31,0-1.97,0,0,0,0,0,0,0ZM38.35,99.28v-.02c.52,0,1.04,0,1.56,0,.18,0,.37.02.54-.03.1-.03.25-.22.23-.29-.13-.42-.29-.84-.46-1.25-.25-.59-.52-1.18-.77-1.77-.24-.58-.47-1.17-.71-1.76-.09-.22-.19-.45-.31-.66-.13-.23-.32-.21-.41.04-.07.2-.09.41-.16.61-.32.88-.65,1.76-.98,2.64-.04.12-.11.23-.16.35-.22.56-.45,1.12-.64,1.69-.1.31.05.46.37.46.64,0,1.27,0,1.91,0Z"/>
    <path class="cls-1" d="M84.38,105.9c-.77-.05-1.55-.05-2.31-.18-.65-.11-1.27-.39-1.9-.6-.24-.08-.48-.16-.7-.28-.36-.2-.7-.42-1.04-.65-.08-.05-.11-.21-.11-.31,0-.9,0-1.8,0-2.7,0-.53.18-.66.67-.41.46.23.88.55,1.34.78.61.3,1.25.56,1.89.79.77.28,1.58.26,2.39.24.64-.02,1.24-.13,1.69-.65.38-.43.34-1.15-.08-1.54-.55-.5-1.18-.83-1.89-1.04-.57-.16-1.12-.42-1.68-.64-.32-.12-.64-.22-.95-.36-.37-.17-.74-.37-1.09-.58-.63-.37-1.19-.84-1.64-1.42-.4-.51-.73-1.06-.83-1.71-.1-.64-.15-1.27-.1-1.93.12-1.39.9-2.35,1.93-3.15.42-.33.96-.51,1.47-.72.97-.4,1.98-.46,2.96-.46,1.14,0,2.31,0,3.42.43.65.25,1.32.44,1.98.65.27.08.46.24.48.53.03.45.04.91.05,1.36,0,.36,0,.72.01,1.08,0,.45-.15.59-.6.55-.08,0-.17-.02-.25-.05-.6-.26-1.19-.53-1.79-.78-.16-.07-.34-.12-.52-.15-.75-.13-1.5-.32-2.25-.33-.69,0-1.43.11-2,.59-.54.46-.48,1.11.07,1.54.73.58,1.58.87,2.45,1.15.22.07.42.2.63.29.58.24,1.19.44,1.76.71.84.41,1.64.91,2.2,1.67.34.46.68.96.86,1.5.21.61.28,1.27.19,1.93-.01.08-.03.17-.03.25.04.96-.4,1.73-.97,2.45-.51.64-1.14,1.18-1.87,1.49-.82.34-1.68.67-2.6.64-.41-.01-.83,0-1.24,0,0,.02,0,.03,0,.05Z"/>
    <path class="cls-1" d="M105.68,88.5c2.57,0,5.13,0,7.7,0,.39,0,.57.14.58.51.02.78.02,1.57,0,2.35,0,.39-.18.53-.57.52-1.63,0-3.27,0-4.9-.02-.55,0-.66.13-.66.68,0,3.09,0,6.17,0,9.26,0,1.11,0,2.23,0,3.34,0,.49-.12.6-.61.61-.91.01-1.82,0-2.74,0-.12,0-.23,0-.35,0-.6.04-.69-.03-.73-.62-.01-.25,0-.51,0-.76,0-3.76,0-7.53,0-11.29,0-.25.02-.51.02-.76,0-.32-.15-.46-.48-.46-1.65,0-3.31,0-4.96.02-.42,0-.62-.15-.63-.58-.02-.74-.02-1.48,0-2.23,0-.43.2-.59.62-.58,2.57,0,5.13,0,7.7,0Z"/>
    <path class="cls-1" d="M147.73,97.16c0,2.56,0,5.13,0,7.69,0,.12,0,.23-.01.35-.03.42-.24.59-.67.58-.93-.02-1.86-.03-2.8-.02-.78,0-.92-.11-.92-.88,0-4.03,0-8.05,0-12.08,0-1.16,0-2.31,0-3.47,0-.71.17-.85.87-.84.94,0,1.89,0,2.83,0,.49,0,.67.14.68.62.01,1.31,0,2.63,0,3.94,0,1.37,0,2.73,0,4.1h0Z"/>
  </g>
  <g>
    <path class="cls-1" d="M29.74,136.72v-14.37h2.9v14.37h-2.9Z"/>
    <path class="cls-1" d="M34.67,132.05l2.82-.28c.17.95.51,1.65,1.03,2.09.52.45,1.22.67,2.1.67.93,0,1.64-.2,2.11-.59.48-.4.71-.86.71-1.39,0-.34-.1-.63-.3-.87-.2-.24-.55-.45-1.04-.62-.34-.12-1.12-.33-2.32-.62-1.56-.39-2.65-.86-3.28-1.42-.88-.79-1.32-1.76-1.32-2.89,0-.73.21-1.42.62-2.05.42-.64,1.01-1.12,1.79-1.46.78-.33,1.72-.5,2.83-.5,1.8,0,3.16.4,4.07,1.19.91.79,1.39,1.85,1.44,3.17l-2.9.13c-.12-.74-.39-1.27-.8-1.59-.41-.33-1.02-.48-1.84-.48s-1.5.17-1.98.52c-.31.22-.46.52-.46.89,0,.34.15.63.43.87.36.31,1.26.63,2.67.96,1.41.33,2.45.68,3.13,1.03.68.35,1.21.84,1.59,1.46.38.62.58,1.38.58,2.29,0,.82-.23,1.6-.69,2.31-.46.72-1.11,1.26-1.94,1.6-.84.35-1.88.52-3.13.52-1.82,0-3.21-.42-4.19-1.26-.97-.84-1.56-2.06-1.74-3.67Z"/>
    <path class="cls-1" d="M48.21,129.62c0-1.46.22-2.69.66-3.68.33-.73.77-1.39,1.34-1.97.57-.58,1.18-1.01,1.86-1.3.9-.38,1.93-.57,3.1-.57,2.12,0,3.81.66,5.09,1.97,1.27,1.31,1.91,3.14,1.91,5.48s-.63,4.14-1.89,5.45c-1.26,1.31-2.95,1.97-5.06,1.97s-3.84-.65-5.1-1.96c-1.26-1.3-1.89-3.1-1.89-5.39ZM51.2,129.52c0,1.63.38,2.86,1.13,3.7.75.84,1.71,1.26,2.86,1.26s2.11-.42,2.85-1.25c.74-.83,1.11-2.08,1.11-3.75s-.36-2.88-1.08-3.69-1.68-1.21-2.88-1.21-2.16.41-2.89,1.23c-.73.82-1.1,2.06-1.1,3.71Z"/>
    <path class="cls-1" d="M69.41,133.4l2.67-.3c.07.54.23.94.51,1.21.28.26.64.39,1.09.39.57,0,1.05-.26,1.45-.78.4-.52.65-1.61.76-3.25-.69.8-1.56,1.2-2.6,1.2-1.13,0-2.11-.44-2.93-1.31-.82-.87-1.23-2.01-1.23-3.41s.43-2.63,1.3-3.52c.87-.89,1.97-1.34,3.31-1.34,1.46,0,2.66.56,3.59,1.69.93,1.13,1.4,2.98,1.4,5.56s-.49,4.52-1.46,5.69c-.98,1.17-2.24,1.74-3.8,1.74-1.13,0-2.03-.3-2.73-.89-.69-.6-1.14-1.49-1.33-2.68ZM75.65,127.38c0-.89-.21-1.58-.62-2.07-.41-.49-.88-.74-1.42-.74s-.93.2-1.27.6c-.34.4-.51,1.06-.51,1.98s.19,1.61.55,2.04c.37.44.82.65,1.37.65s.98-.21,1.34-.63c.36-.42.55-1.03.55-1.85Z"/>
    <path class="cls-1" d="M85.26,122.29c1.39,0,2.48.49,3.27,1.49.93,1.17,1.4,3.13,1.4,5.85s-.47,4.68-1.41,5.86c-.78.98-1.86,1.47-3.26,1.47s-2.53-.54-3.38-1.61c-.86-1.08-1.29-2.99-1.29-5.75s.47-4.65,1.41-5.84c.78-.98,1.86-1.47,3.25-1.47ZM85.26,124.57c-.33,0-.63.1-.89.32-.26.21-.46.59-.61,1.14-.19.71-.28,1.91-.28,3.6s.08,2.85.25,3.48c.17.63.38,1.05.64,1.26.26.21.55.31.89.31s.63-.1.89-.32c.26-.21.46-.59.61-1.14.19-.71.29-1.9.29-3.59s-.08-2.84-.26-3.48c-.17-.63-.38-1.05-.64-1.26-.26-.21-.55-.32-.89-.32Z"/>
    <path class="cls-1" d="M96.51,122.29c1.39,0,2.48.49,3.27,1.49.93,1.17,1.4,3.13,1.4,5.85s-.47,4.68-1.41,5.86c-.78.98-1.86,1.47-3.26,1.47s-2.53-.54-3.38-1.61c-.86-1.08-1.29-2.99-1.29-5.75s.47-4.65,1.41-5.84c.78-.98,1.86-1.47,3.25-1.47ZM96.51,124.57c-.33,0-.63.1-.89.32-.26.21-.46.59-.61,1.14-.19.71-.28,1.91-.28,3.6s.08,2.85.25,3.48c.17.63.38,1.05.64,1.26.26.21.55.31.89.31s.63-.1.89-.32c.26-.21.46-.59.61-1.14.19-.71.29-1.9.29-3.59s-.08-2.84-.26-3.48c-.17-.63-.38-1.05-.64-1.26-.26-.21-.55-.32-.89-.32Z"/>
    <path class="cls-1" d="M110.15,136.72h-2.76v-10.38c-1.01.94-2.19,1.64-3.56,2.09v-2.5c.72-.24,1.5-.68,2.34-1.34s1.42-1.42,1.74-2.3h2.24v14.43Z"/>
    <path class="cls-1" d="M115.47,129.07v-2.76h2.75v2.76h-2.75ZM115.47,136.72v-2.76h2.75v2.76h-2.75Z"/>
    <path class="cls-1" d="M130.08,134.16v2.56h-9.66c.1-.97.42-1.88.94-2.75.52-.87,1.56-2.01,3.1-3.45,1.24-1.16,2-1.94,2.28-2.35.38-.57.57-1.13.57-1.69,0-.62-.17-1.09-.49-1.42-.33-.33-.79-.49-1.37-.49s-1.03.17-1.37.52c-.34.35-.54.92-.59,1.73l-2.75-.28c.16-1.52.68-2.6,1.54-3.26s1.94-.99,3.24-.99c1.42,0,2.53.38,3.34,1.15.81.76,1.22,1.72,1.22,2.85,0,.65-.12,1.26-.35,1.85-.23.59-.6,1.2-1.1,1.84-.34.43-.94,1.03-1.81,1.83-.87.8-1.42,1.33-1.65,1.59-.23.26-.42.51-.57.76h5.47Z"/>
    <path class="cls-1" d="M136.64,122.29c1.39,0,2.48.49,3.27,1.49.93,1.17,1.4,3.13,1.4,5.85s-.47,4.68-1.41,5.86c-.78.98-1.86,1.47-3.26,1.47s-2.53-.54-3.38-1.61c-.86-1.08-1.29-2.99-1.29-5.75s.47-4.65,1.41-5.84c.78-.98,1.86-1.47,3.25-1.47ZM136.64,124.57c-.33,0-.63.1-.89.32-.26.21-.46.59-.61,1.14-.19.71-.28,1.91-.28,3.6s.08,2.85.25,3.48c.17.63.38,1.05.64,1.26.26.21.55.31.89.31s.63-.1.89-.32c.26-.21.46-.59.61-1.14.19-.71.29-1.9.29-3.59s-.08-2.84-.26-3.48c-.17-.63-.38-1.05-.64-1.26-.26-.21-.55-.32-.89-.32Z"/>
    <path class="cls-1" d="M150.25,136.72h-2.76v-10.38c-1.01.94-2.19,1.64-3.56,2.09v-2.5c.72-.24,1.5-.68,2.34-1.34s1.42-1.42,1.74-2.3h2.24v14.43Z"/>
    <path class="cls-1" d="M154.22,133.03l2.75-.28c.08.62.31,1.11.7,1.47.38.36.83.54,1.33.54.57,0,1.06-.23,1.46-.7.4-.47.6-1.17.6-2.11,0-.89-.2-1.55-.59-1.99-.39-.44-.91-.66-1.55-.66-.79,0-1.5.35-2.13,1.05l-2.24-.32,1.41-7.48h7.28v2.58h-5.2l-.43,2.44c.62-.31,1.24-.46,1.88-.46,1.22,0,2.26.45,3.11,1.33.85.89,1.28,2.04,1.28,3.46,0,1.18-.34,2.24-1.03,3.17-.94,1.27-2.23,1.9-3.89,1.9-1.33,0-2.41-.35-3.25-1.07-.84-.71-1.34-1.67-1.5-2.87Z"/>
  </g>
</svg>